<?xml version="1.0" encoding="utf-8"?>
<!-- Generator: Adobe Illustrator 28.0.0, SVG Export Plug-In . SVG Version: 6.00 Build 0)  -->
<svg version="1.1" id="Capa_1" xmlns="http://www.w3.org/2000/svg" xmlns:xlink="http://www.w3.org/1999/xlink" x="0px" y="0px"
	 viewBox="0 0 141 30" style="enable-background:new 0 0 141 30;" xml:space="preserve">
<style type="text/css">
	.st0{clip-path:url(#SVGID_00000027592268248825878780000011021598921314629287_);}
	.st1{fill:#FFFFFF;filter:url(#Adobe_OpacityMaskFilter);}
	.st2{mask:url(#mask0_2767_31143_00000161618635177861867340000006169499674522019254_);}
	.st3{fill:#BFD732;}
</style>
<g>
	<defs>
		<rect id="SVGID_1_" x="0.3" y="0.6" width="140.4" height="28.8"/>
	</defs>
	<clipPath id="SVGID_00000166676048062273820550000008516633384029145729_">
		<use xlink:href="#SVGID_1_"  style="overflow:visible;"/>
	</clipPath>
	<g style="clip-path:url(#SVGID_00000166676048062273820550000008516633384029145729_);">
		<defs>
			<filter id="Adobe_OpacityMaskFilter" filterUnits="userSpaceOnUse" x="1" y="1.1" width="139.5" height="27.7">
				<feColorMatrix  type="matrix" values="1 0 0 0 0  0 1 0 0 0  0 0 1 0 0  0 0 0 1 0"/>
			</filter>
		</defs>
		
			<mask maskUnits="userSpaceOnUse" x="1" y="1.1" width="139.5" height="27.7" id="mask0_2767_31143_00000161618635177861867340000006169499674522019254_">
			<path class="st1" d="M140.5,1.1H1V29h139.5V1.1z"/>
		</mask>
		<g class="st2">
			<path d="M12.1,26.4C5.2,26.4,1,20.5,1,14.1C1,7.3,4.8,1.9,12,1.9c5.3,0,9.4,3.2,9.8,7.8h-4.8c-0.3-2.2-2.5-3.9-5-3.9
				c-3.8,0-6.3,3-6.3,8.5c0,3.8,1.9,8,6.2,8c4.1,0,5.5-2,5.5-5.2h-4.9v-3.8h9.4v3.8C21.9,22.6,19.6,26.4,12.1,26.4z"/>
			<path d="M24.6,25.6V2.4h4.4v23.1L24.6,25.6L24.6,25.6z"/>
			<path d="M31.1,15.8c0.3-1.9,1.1-3.7,2.4-5c1.4-1.3,3.1-2.2,5-2.5c5.9-0.5,9.5,3.1,9.5,8.9c0,5.4-3.2,8.9-8.5,8.9
				C33.7,26.1,30.5,21.8,31.1,15.8z M43.6,17.2c0-3.4-1.4-5.1-4-5.1c-2.7,0-4.1,1.7-4.1,5.1s1.4,5.2,4.1,5.2
				C42.3,22.3,43.6,20.6,43.6,17.2z"/>
			<path d="M50.2,25.6V2.4h4.3v8.5c0.5-0.8,1.3-1.5,2.2-2c0.9-0.4,1.8-0.7,2.8-0.7c4.3,0,6.8,3.6,6.8,8.7c0,5.8-3.1,9.1-7.2,9.1
				c-0.9,0.1-1.8-0.2-2.7-0.6c-0.8-0.4-1.5-1.1-2-1.9v2.1L50.2,25.6z M61.8,17.3c0-3.5-1.2-5.2-3.8-5.2s-3.7,1.8-3.7,5.6
				c0,2.9,1.6,4.9,3.7,4.9C60.2,22.5,61.8,20.3,61.8,17.3z"/>
			<path d="M79.3,25.6c-0.2-0.5-0.2-1-0.3-1.5c-0.6,0.6-1.4,1.2-2.3,1.5c-0.9,0.4-1.8,0.5-2.7,0.4c-3.8,0-5.6-1.9-5.6-4.7
				c0-4.9,3.2-5.5,7.6-6c2.2-0.4,2.8-0.7,2.8-1.9s-1.1-1.8-2.8-1.8c-2,0-2.8,1-3,2.5h-4.1c0.1-3.5,2-5.9,7.3-5.9
				c5.3,0,7.1,2.4,7.1,6.7v10.6L79.3,25.6L79.3,25.6z M79,17.3c-0.4,0.5-1.2,0.7-2.8,1c-2.5,0.5-3.3,1.2-3.3,2.6
				c0,1.3,0.7,1.9,2.2,1.9c1,0,2-0.4,2.7-1c0.7-0.7,1.2-1.6,1.3-2.7V17.3z"/>
			<path d="M97.1,25.6V15.4c0-2.6-0.7-3.3-2.8-3.3c-2.3,0-3.4,1.4-3.4,3.9v9.7h-4.4V8.7h4.2v2.5c0.5-1,1.3-1.8,2.2-2.2
				c1-0.5,2.1-0.7,3.1-0.6c0.7-0.1,1.4,0,2,0.3c0.6,0.2,1.3,0.5,1.7,1c0.5,0.4,0.9,1,1.3,1.6c0.3,0.6,0.5,1.3,0.5,2
				c0,0.3,0,0.5,0,0.8v11.8h-4.5V25.6z"/>
			<path d="M114.2,19.3c-0.1,1.9-0.9,2.9-2.6,2.9c-1.6,0-2.5-1.3-2.5-3.4v-6.9h6.8V8.3h-6.8V4.1h-4.4v15.2c0,3.7,2,6.8,6.8,6.8
				c4.7,0,6.8-3.2,6.8-6.8L114.2,19.3z"/>
			<path class="st3" d="M123.5,1.2c-0.3-0.2-0.5-0.2-0.8-0.1c-0.3,0.1-0.5,0.3-0.6,0.5c-0.2,0.3-0.2,0.5-0.1,0.8l2,3
				c1.9,2.9,2.9,6.2,2.9,9.6s-1,6.8-2.9,9.6l-2,3c0,0.1-0.1,0.3-0.1,0.4s0.1,0.3,0.1,0.4c0.1,0.1,0.2,0.2,0.3,0.3
				c0.1,0.1,0.2,0.2,0.4,0.2c0.1,0,0.3,0.1,0.4,0c0.2,0,0.3-0.1,0.4-0.2l16.6-12.7c0.3-0.2,0.4-0.5,0.5-0.8c0.1-0.4,0-0.7-0.3-1
				c-0.1-0.1-0.2-0.2-0.3-0.3L123.5,1.2z"/>
		</g>
	</g>
</g>
</svg>
