<?xml version="1.0" encoding="utf-8"?>
<!-- Generator: Adobe Illustrator 28.0.0, SVG Export Plug-In . SVG Version: 6.00 Build 0)  -->
<svg version="1.1" id="Capa_1" xmlns="http://www.w3.org/2000/svg" xmlns:xlink="http://www.w3.org/1999/xlink" x="0px" y="0px"
	 viewBox="0 0 109 38" style="enable-background:new 0 0 109 38;" xml:space="preserve">
<style type="text/css">
	.st0{clip-path:url(#SVGID_00000079457029548696087870000017857934405293939080_);}
	.st1{fill:#FFFFFF;filter:url(#Adobe_OpacityMaskFilter);}
	.st2{mask:url(#mask0_2767_31120_00000132779243399153406720000013643575148241046688_);}
	.st3{fill:#EA4335;}
	.st4{fill:#FBBC05;}
	.st5{fill:#4285F4;}
	.st6{fill:#34A853;}
</style>
<g>
	<defs>
		<rect id="SVGID_1_" x="0.5" y="0.7" width="108" height="36.5"/>
	</defs>
	<clipPath id="SVGID_00000134218061832663438210000007253585340449381262_">
		<use xlink:href="#SVGID_1_"  style="overflow:visible;"/>
	</clipPath>
	<g style="clip-path:url(#SVGID_00000134218061832663438210000007253585340449381262_);">
		<defs>
			<filter id="Adobe_OpacityMaskFilter" filterUnits="userSpaceOnUse" x="1.2" y="0.9" width="106.2" height="35.2">
				<feColorMatrix  type="matrix" values="1 0 0 0 0  0 1 0 0 0  0 0 1 0 0  0 0 0 1 0"/>
			</filter>
		</defs>
		
			<mask maskUnits="userSpaceOnUse" x="1.2" y="0.9" width="106.2" height="35.2" id="mask0_2767_31120_00000132779243399153406720000013643575148241046688_">
			<path class="st1" d="M108.3,0.7H1.1v36.5h107.2V0.7z"/>
		</mask>
		<g class="st2">
			<path class="st3" d="M46.7,19.5c0,5.1-4,8.8-8.7,8.8c-4.9,0-8.7-3.7-8.7-8.8c0-5.1,4-8.8,8.7-8.8C42.8,10.6,46.7,14.4,46.7,19.5z
				 M42.9,19.5c0-3.2-2.3-5.3-4.9-5.3c-2.7,0-4.9,2.1-4.9,5.3c0,3.1,2.3,5.3,4.9,5.3C40.6,24.8,42.9,22.6,42.9,19.5z"/>
			<path class="st4" d="M65.7,19.5c0,5.1-4,8.8-8.7,8.8c-4.9,0-8.7-3.7-8.7-8.8c0-5.1,4-8.8,8.7-8.8C61.7,10.6,65.7,14.4,65.7,19.5z
				 M61.8,19.5c0-3.2-2.3-5.3-4.9-5.3c-2.7,0-4.9,2.1-4.9,5.3c0,3.1,2.3,5.3,4.9,5.3C59.5,24.8,61.8,22.6,61.8,19.5z"/>
			<path class="st5" d="M83.8,11.2V27c0,6.5-3.8,9.1-8.3,9.1c-4.3,0-6.8-2.9-7.8-5.2l3.3-1.4c0.6,1.4,2.1,3.1,4.4,3.1
				c2.9,0,4.6-1.8,4.6-5.2v-1.3H80c-0.8,1.1-2.5,2-4.6,2c-4.3,0-8.4-3.8-8.4-8.7c0-4.9,4-8.8,8.4-8.8c2.1,0,3.7,0.9,4.6,2h0.2v-1.4
				H83.8z M80.4,19.5c0-3.1-2.1-5.4-4.6-5.4c-2.7,0-4.9,2.3-4.9,5.4c0,3,2.2,5.3,4.9,5.3C78.4,24.8,80.4,22.6,80.4,19.5z"/>
			<path class="st6" d="M89.8,2v25.8H86V2H89.8z"/>
			<path class="st3" d="M104.4,22.3l3,2c-1,1.4-3.3,3.9-7.3,3.9c-4.9,0-8.7-3.9-8.7-8.8c0-5.2,3.7-8.8,8.2-8.8
				c4.6,0,6.8,3.7,7.5,5.6l0.4,1L95.7,22c0.9,1.7,2.3,2.7,4.3,2.7C102.1,24.8,103.4,23.9,104.4,22.3z M95.2,19.2l7.8-3.3
				c-0.5-1.1-1.7-1.9-3.3-1.9C97.8,14.1,95.1,15.8,95.2,19.2z"/>
			<path class="st5" d="M15,17.2v-3.7h12.5c0.2,0.7,0.2,1.4,0.2,2.3c0,2.8-0.8,6.2-3.2,8.7c-2.4,2.5-5.4,3.8-9.5,3.8
				c-7.5,0-13.8-6.2-13.8-13.7c0-7.5,6.3-13.7,13.8-13.7c4.1,0,7.1,1.6,9.3,3.8l-2.6,2.7c-1.6-1.5-3.7-2.7-6.7-2.7
				c-5.4,0-9.7,4.4-9.7,9.9c0,5.5,4.3,10,9.7,10c3.6,0,5.6-1.4,6.8-2.7c1.1-1.1,1.7-2.6,2-4.6H15z"/>
		</g>
	</g>
</g>
</svg>
