<?xml version="1.0" encoding="utf-8"?>
<!-- Generator: Adobe Illustrator 28.0.0, SVG Export Plug-In . SVG Version: 6.00 Build 0)  -->
<svg version="1.1" id="Capa_1" xmlns="http://www.w3.org/2000/svg" xmlns:xlink="http://www.w3.org/1999/xlink" x="0px" y="0px"
	 viewBox="0 0 147 38" style="enable-background:new 0 0 147 38;" xml:space="preserve">
<style type="text/css">
	.st0{clip-path:url(#SVGID_00000032611973996889105240000010033518883576674222_);}
	.st1{fill:#FFFFFF;filter:url(#Adobe_OpacityMaskFilter);}
	.st2{mask:url(#mask0_2767_31132_00000108282427295858636040000010995218535214967724_);}
	.st3{fill:#2D3277;}
	.st4{fill:#FFE600;}
	.st5{fill:#FFFFFF;}
</style>
<g>
	<defs>
		<rect id="SVGID_1_" x="0.5" y="0" width="145.8" height="37.9"/>
	</defs>
	<clipPath id="SVGID_00000145751227507835550120000000643666013933627321_">
		<use xlink:href="#SVGID_1_"  style="overflow:visible;"/>
	</clipPath>
	<g style="clip-path:url(#SVGID_00000145751227507835550120000000643666013933627321_);">
		<defs>
			<filter id="Adobe_OpacityMaskFilter" filterUnits="userSpaceOnUse" x="1.2" y="0" width="144.8" height="37.9">
				<feColorMatrix  type="matrix" values="1 0 0 0 0  0 1 0 0 0  0 0 1 0 0  0 0 0 1 0"/>
			</filter>
		</defs>
		
			<mask maskUnits="userSpaceOnUse" x="1.2" y="0" width="144.8" height="37.9" id="mask0_2767_31132_00000108282427295858636040000010995218535214967724_">
			<path class="st1" d="M1.2,0h144.8V38H1.2V0z"/>
		</mask>
		<g class="st2">
			<path class="st3" d="M55.4,18c0-9.9-12.1-18-27.1-18C13.3,0,1.2,8.1,1.2,18v1c0,10.5,10.6,19,27.1,19s27.1-8.5,27.1-19V18z"/>
			<path class="st4" d="M54.3,17.9c0,9.3-11.7,16.9-26,16.9c-14.3,0-26-7.6-26-16.9C2.3,8.6,14,1,28.3,1C42.6,1,54.3,8.6,54.3,17.9z
				"/>
			<path class="st5" d="M19.7,12.6c0,0-0.3,0.3-0.1,0.5c0.4,0.5,1.7,0.8,3,0.5c1-0.4,1.9-1,2.7-1.7c0.9-0.8,1.9-1.5,3.1-2
				c0.7-0.3,1.5-0.3,2.2-0.1c0.8,0.3,1.5,0.7,2.1,1.2c1.8,1.4,9,7.7,10.2,8.8c3.7-1.6,7.5-2.9,11.4-3.7c-0.5-3.3-2.5-6.2-5.4-8.7
				c-4.1,1.8-9.2,2.7-14.1,0.2c-1.7-0.8-3.5-1.2-5.3-1.2c-3.9,0.1-5.6,1.8-7.4,3.6L19.7,12.6z"/>
			<path class="st5" d="M42.5,20.6c-0.1-0.1-8.4-7.5-10.3-8.9c-0.7-0.6-1.5-1-2.3-1.1c-0.4,0-0.7,0-1.1,0.1c-1.1,0.4-2.1,1-3,1.8
				c-1.1,0.9-2.1,1.7-3,1.9c-1.1,0.2-2.3,0.1-3.3-0.5c-0.2-0.1-0.4-0.4-0.5-0.6c-0.1-0.2-0.1-0.4,0-0.6c0.1-0.2,0.2-0.4,0.3-0.5
				l2.3-2.5l0.8-0.8C21.7,9,21,9.2,20.3,9.4c-0.8,0.3-1.6,0.4-2.4,0.5c-0.8-0.1-1.7-0.2-2.5-0.4C12.9,8.8,10.7,8,8.6,6.9
				c-3.3,2.5-5.5,5.6-6.1,9C3,16,3.7,16.3,4,16.3c7.4,1.7,9.7,3.4,10.1,3.7c0.2-0.3,0.6-0.5,0.9-0.6c0.3-0.1,0.7-0.2,1.1-0.2
				s0.7,0.1,1.1,0.3c0.3,0.2,0.6,0.4,0.8,0.7c0.5-0.4,1.1-0.6,1.8-0.6c0.4,0,0.7,0.1,1.1,0.2c0.3,0.1,0.6,0.3,0.9,0.5
				c0.3,0.2,0.5,0.5,0.6,0.8c0.3-0.1,0.7-0.2,1-0.2c0.4,0,0.8,0.1,1.2,0.3c0.5,0.3,1,0.7,1.2,1.2s0.3,1.2,0.2,1.8
				c0.4,0,0.8,0,1.1,0.1c0.4,0.1,0.7,0.3,1,0.5c0.3,0.2,0.5,0.6,0.7,0.9c0.2,0.3,0.3,0.7,0.3,1.1v0.3c0,0.5-0.1,1-0.4,1.4
				c0.8,0.5,1.7,0.7,2.5,0.7c0.2,0,0.4,0,0.6-0.1c0.2-0.1,0.4-0.2,0.5-0.4c0.1-0.1,0.2-0.2,0.1-0.3l-2.1-2.3c0,0-0.3-0.3-0.2-0.5
				c0.1-0.1,0.3,0.1,0.5,0.2c1.1,0.9,2.4,2.3,2.4,2.3s0.1,0.2,0.6,0.3c0.3,0.1,0.6,0,0.9,0c0.3-0.1,0.6-0.2,0.8-0.4
				c0.1-0.1,0.3-0.2,0.4-0.4c0.1-0.2,0.2-0.5,0.2-0.7c0-0.3-0.1-0.5-0.3-0.7l-2.4-2.8c0,0-0.3-0.3-0.2-0.5c0.1-0.1,0.3,0.1,0.5,0.2
				c0.8,0.7,1.9,1.8,2.9,2.8c0.3,0.2,0.8,0.4,1.2,0.3c0.4,0,0.8-0.2,1.2-0.4c0.3-0.2,0.5-0.4,0.7-0.6c0.2-0.3,0.2-0.6,0.2-0.9
				c-0.1-0.4-0.2-0.8-0.5-1L35.8,20c0,0-0.4-0.3-0.2-0.5c0.1-0.2,0.3,0.1,0.5,0.2c1.1,0.9,3.9,3.6,3.9,3.6c0.3,0.2,0.7,0.3,1.1,0.3
				c0.4,0,0.8-0.1,1.1-0.4c0.2-0.1,0.4-0.3,0.5-0.5c0.1-0.2,0.2-0.5,0.2-0.7c0-0.3,0-0.5-0.1-0.8C42.8,21,42.6,20.7,42.5,20.6z"/>
			<path class="st5" d="M26.3,24.9c-0.4,0.1-0.8,0.1-1.2,0.3c0,0,0-0.2,0.1-0.4c0.1-0.1,0.7-2.2-0.9-2.9c-0.4-0.2-0.8-0.3-1.2-0.2
				c-0.4,0.1-0.8,0.3-1.1,0.6c-0.1,0.1-0.1,0.1-0.1,0c0-0.4-0.1-0.8-0.4-1.1c-0.3-0.3-0.6-0.5-0.9-0.7c-0.5-0.2-1.1-0.1-1.6,0
				c-0.5,0.2-0.9,0.5-1.2,1c-0.1-0.4-0.2-0.8-0.5-1.1c-0.3-0.3-0.7-0.5-1.1-0.5c-0.4,0-0.8,0.1-1.2,0.3c-0.3,0.2-0.6,0.6-0.7,0.9
				c-0.1,0.4-0.1,0.8,0,1.2c0.1,0.4,0.4,0.7,0.7,1c0.3,0.2,0.8,0.3,1.2,0.3c0.4,0,0.8-0.2,1.1-0.5v0.1c-0.1,0.6,0,1.2,0.2,1.7
				c0.3,0.5,0.7,0.9,1.3,1.1c0.3,0.1,0.6,0.1,0.9,0.1s0.6-0.2,0.8-0.4c0.1-0.1,0.2-0.1,0.1,0.1c-0.1,0.4,0,1.3,1.3,1.9
				c0.3,0.2,0.7,0.2,1,0.1c0.3-0.1,0.7-0.2,0.9-0.5c0.2-0.1,0.2-0.1,0.2,0.1c0,0.5,0.2,0.9,0.4,1.3c0.3,0.4,0.6,0.7,1,0.8
				c0.4,0.2,0.9,0.2,1.3,0.1c0.4-0.1,0.8-0.3,1.1-0.7c0.3-0.3,0.5-0.7,0.6-1.2c0.1-0.4,0-0.9-0.1-1.3c-0.2-0.4-0.5-0.8-0.8-1
				C27.2,25.2,26.7,24.9,26.3,24.9z"/>
			<path class="st3" d="M26.3,29.4c-0.5,0-1.1-0.2-1.5-0.6c-0.4-0.4-0.6-0.9-0.6-1.5c0-0.1,0-0.4-0.2-0.4c-0.1,0-0.2,0.1-0.3,0.1
				c-0.1,0.1-0.3,0.3-0.5,0.3c-0.2,0.1-0.4,0.1-0.6,0.1c-0.2,0-0.5-0.1-0.7-0.1c-1.2-0.5-1.2-1.3-1.2-1.7v-0.2l-0.1-0.1h-0.1
				c-0.1,0-0.1,0-0.2,0.1c-0.3,0.2-0.7,0.4-1,0.4c-0.2,0-0.4,0-0.6-0.1c-0.5-0.2-0.9-0.6-1.2-1c-0.3-0.5-0.3-1-0.2-1.6V23
				c0,0,0-0.1-0.1-0.1l-0.1-0.1V23c-0.3,0.3-0.6,0.4-1,0.5c-0.4,0.1-0.7-0.1-1-0.3c-0.3-0.2-0.5-0.5-0.7-0.9c-0.1-0.4-0.1-0.7,0-1.1
				c0.1-0.4,0.4-0.7,0.7-0.9c0.3-0.2,0.7-0.3,1-0.2c0.4,0,0.7,0.2,1,0.5c0.3,0.3,0.4,0.6,0.5,1l0.1,0.4l0.2-0.4
				c0.2-0.3,0.5-0.6,0.8-0.8c0.3-0.2,0.7-0.3,1.1-0.3c0.2,0,0.5,0,0.7,0.1c0.3,0.1,0.6,0.3,0.8,0.6c0.2,0.3,0.3,0.6,0.3,1
				c0,0.2,0.2,0.2,0.2,0.2h0.1c0,0,0.1,0,0.1-0.1c0.2-0.2,0.3-0.3,0.6-0.4c0.2-0.1,0.4-0.1,0.7-0.1c0.3,0,0.6,0.1,0.9,0.2
				c1.6,0.7,0.8,2.7,0.8,2.7c-0.1,0.3-0.1,0.5,0,0.6h0.1c0.1,0,0.2,0,0.3-0.1c0.3-0.1,0.5-0.2,0.8-0.2c0.3,0,0.6,0,0.8,0.1
				c0.3,0.1,0.5,0.3,0.7,0.5c0.2,0.2,0.4,0.4,0.5,0.7c0.1,0.3,0.2,0.6,0.2,0.9c0,0.3-0.1,0.6-0.2,0.9c-0.1,0.3-0.3,0.5-0.5,0.7
				c-0.2,0.2-0.5,0.4-0.7,0.5C26.9,29.3,26.6,29.4,26.3,29.4z M42.8,19.7c-2.6-2.3-8.5-7.5-10.1-8.7c-0.6-0.5-1.3-0.9-2.1-1.2
				c-0.3-0.1-0.7-0.2-1-0.2c-0.4,0-0.9,0.1-1.3,0.2c-1.1,0.5-2.2,1.1-3.1,2c-0.8,0.7-1.7,1.3-2.6,1.7c-0.3,0.1-0.6,0.1-1,0.1
				c-0.3,0-0.7,0-1-0.1c-0.3-0.1-0.6-0.3-0.9-0.5c0-0.1,0-0.2,0.1-0.3l2.3-2.5c1.8-1.8,3.4-3.5,7.3-3.6h0.1c1.7,0.1,3.5,0.5,5.1,1.2
				c2.1,1.2,4.5,1.8,6.9,1.8c2.6,0,5.2-0.7,7.6-1.8c-0.3-0.3-0.6-0.6-1-0.8c-2.1,1-4.4,1.5-6.6,1.5c-2.2,0-4.4-0.6-6.5-1.6
				c-1.7-0.8-3.6-1.2-5.5-1.3h-0.2c-2.3,0-4.5,0.8-6.3,2.3c-1.1,0.1-2.1,0.3-3.1,0.6c-0.7,0.2-1.5,0.4-2.2,0.4h-0.8
				c-2.7-0.5-5.4-1.2-8-2.3C8.6,6.9,8.3,7.1,8,7.3c2.8,1.2,5.6,2,8.6,2.5c0.4,0,0.7,0.1,1.1,0.1c0.8,0,1.7-0.2,2.5-0.5
				c0.5-0.1,1-0.3,1.6-0.4l-0.4,0.4L19,12c-0.2,0.2-0.3,0.4-0.4,0.6c-0.1,0.2,0,0.5,0,0.7c0.1,0.3,0.3,0.5,0.6,0.7
				c0.7,0.4,1.6,0.6,2.4,0.6c0.3,0,0.7,0,1-0.1c1-0.2,2-1,3-1.9c0.9-0.8,1.9-1.4,3-1.8c0.3-0.1,0.6-0.1,0.8-0.1h0.2
				c0.8,0.1,1.6,0.5,2.3,1.1c1.9,1.4,10.2,8.8,10.3,8.9c0.2,0.2,0.3,0.4,0.4,0.6c0.1,0.2,0.1,0.4,0.1,0.7c0,0.2-0.1,0.4-0.2,0.6
				c-0.1,0.2-0.3,0.3-0.5,0.5c-0.3,0.2-0.7,0.3-1.1,0.3c-0.3,0-0.7-0.1-1-0.3c0,0-2.9-2.7-3.9-3.6c-0.1-0.1-0.3-0.2-0.5-0.3h-0.1
				c0,0-0.1,0-0.1,0.1c-0.2,0.2,0,0.5,0.2,0.7l3.3,3.4c0.2,0.2,0.4,0.6,0.5,0.9c0,0.3-0.1,0.6-0.2,0.8c-0.1,0.2-0.3,0.5-0.6,0.6
				c-0.3,0.2-0.8,0.4-1.2,0.4c-0.3,0-0.7-0.1-1-0.3l-0.5-0.5c-0.9-0.9-1.8-1.8-2.4-2.3c-0.1-0.1-0.3-0.2-0.5-0.3h-0.1
				c0,0-0.1,0-0.1,0.1c-0.1,0.1-0.1,0.2,0.1,0.5c0,0.1,0.1,0.1,0.2,0.2l2.4,2.8c0.1,0.2,0.2,0.4,0.2,0.6c0,0.2-0.1,0.4-0.2,0.6
				l-0.1,0.1c-0.1,0.1-0.1,0.2-0.2,0.2c-0.3,0.3-0.8,0.4-1.2,0.4h-0.3c-0.2,0-0.3-0.1-0.5-0.2c-0.1-0.1-1.4-1.4-2.4-2.3
				c-0.1-0.1-0.3-0.2-0.5-0.3h-0.1c0,0-0.1,0-0.1,0.1c-0.2,0.2,0.1,0.6,0.2,0.7l2.1,2.3c0,0.1,0,0.1-0.1,0.1
				c-0.1,0.1-0.3,0.4-1.1,0.5h-0.3c-0.7,0-1.4-0.2-2.1-0.6c0.2-0.4,0.3-0.9,0.3-1.3c0-0.8-0.3-1.6-0.9-2.2c-0.6-0.6-1.4-0.9-2.2-0.9
				h-0.1c0.1-0.6,0-1.2-0.3-1.7s-0.7-1-1.3-1.2c-0.4-0.2-0.8-0.3-1.3-0.3c-0.3,0-0.6,0.1-1,0.2c-0.3-0.6-0.9-1.1-1.5-1.3
				c-0.4-0.1-0.7-0.2-1.1-0.2c-0.6,0-1.2,0.2-1.7,0.6c-0.2-0.3-0.5-0.5-0.8-0.7c-0.3-0.2-0.7-0.3-1.1-0.3s-0.7,0-1.1,0.2
				c-0.3,0.1-0.7,0.3-0.9,0.6c-0.6-0.5-3.2-2.2-10.1-3.7C3.5,16.1,3,16,2.5,15.8c-0.1,0.4-0.1,0.8-0.2,1.1l1.5,0.4
				c7,1.6,9.3,3.2,9.7,3.5c-0.2,0.4-0.2,0.9-0.2,1.4c0.1,0.5,0.3,0.9,0.6,1.3c0.3,0.4,0.7,0.7,1.1,0.8c0.4,0.2,0.9,0.2,1.4,0.1
				c0.1,0.5,0.3,1,0.7,1.4c0.3,0.4,0.8,0.7,1.3,0.9c0.5,0.2,1,0.2,1.5,0.1c0.2,0.4,0.4,0.7,0.7,1c0.3,0.3,0.6,0.5,1,0.6
				c0.3,0.1,0.7,0.2,1,0.2c0.3,0,0.5-0.1,0.8-0.1c0.2,0.5,0.5,0.9,0.9,1.2c0.4,0.3,0.9,0.6,1.4,0.7c0.5,0.1,1,0.1,1.5-0.1
				c0.5-0.2,0.9-0.4,1.3-0.8c0.8,0.5,1.7,0.7,2.6,0.8h0.4c0.3,0,0.7-0.1,1-0.2c0.3-0.2,0.6-0.4,0.8-0.6c0-0.1,0.1-0.1,0.1-0.2
				c0.3,0.1,0.6,0.1,0.8,0.1c0.6,0,1.2-0.2,1.7-0.6c0.5-0.3,0.9-0.9,1-1.5c0.2,0,0.4,0.1,0.6,0.1c0.6,0,1.2-0.2,1.7-0.6
				c0.4-0.2,0.7-0.6,0.9-1c0.2-0.4,0.3-0.8,0.3-1.3c0.2,0,0.4,0.1,0.6,0.1c0.6-0.1,1.2-0.3,1.6-0.7c0.3-0.2,0.6-0.5,0.8-0.8
				c0.2-0.3,0.3-0.7,0.3-1.1c0-0.5-0.1-1.1-0.4-1.5c3.5-1.4,7.1-2.6,10.8-3.4c0-0.4-0.1-0.8-0.2-1.1C50.3,16.8,46.4,18.1,42.8,19.7z
				 M142.3,14c-0.2,0.3-0.6,0.5-0.9,0.7c-0.3,0.2-0.7,0.3-1.1,0.3c-0.4,0-0.8-0.1-1.1-0.3c-0.3-0.2-0.7-0.4-0.9-0.7
				c-0.5-0.8-0.7-1.8-0.7-2.7c0-0.9,0.2-1.9,0.7-2.7c0.2-0.3,0.6-0.5,0.9-0.7c0.3-0.2,0.7-0.2,1.1-0.2c0.4,0,0.8,0.1,1.1,0.2
				c0.3,0.2,0.7,0.4,0.9,0.7c0.5,0.8,0.7,1.8,0.7,2.7C143,12.3,142.7,13.2,142.3,14z M144.7,6.9c-1-1.2-2.4-1.9-4.4-1.9
				c-2,0-3.4,0.6-4.4,1.9c-0.9,1.3-1.4,2.8-1.4,4.4c0,1.6,0.5,3.1,1.4,4.4c1,1.2,2.4,1.8,4.4,1.8c2,0,3.4-0.6,4.4-1.8
				c0.9-1.3,1.4-2.8,1.4-4.4C146.1,9.7,145.6,8.2,144.7,6.9z M118.5,12.6c0,0.4,0,0.8-0.2,1.2c-0.1,0.4-0.4,0.7-0.7,0.9
				c-0.5,0.4-1.2,0.6-1.8,0.6c-0.4,0-0.8-0.1-1.1-0.4c-0.2-0.1-0.3-0.3-0.3-0.5c-0.1-0.2-0.1-0.4-0.1-0.6c0-0.3,0-0.5,0.2-0.8
				c0.1-0.2,0.3-0.4,0.5-0.6c0.4-0.2,0.9-0.4,1.4-0.4l0.7-0.1c0.3,0,0.5-0.1,0.8-0.2l0.6-0.3V12.6z M120,5.9c-1-0.5-2.2-0.8-3.4-0.8
				c-1.9,0-3.3,0.5-4.1,1.6c-0.5,0.7-0.8,1.6-0.8,2.5h2.9c0-0.4,0.2-0.8,0.4-1.1c0.2-0.2,0.4-0.3,0.7-0.4c0.3-0.1,0.5-0.1,0.8-0.1
				c0.5,0,1,0.1,1.5,0.3c0.2,0.1,0.3,0.2,0.4,0.4c0.1,0.2,0.1,0.4,0.1,0.6c0,0.2-0.1,0.4-0.2,0.5c-0.1,0.2-0.3,0.3-0.5,0.3l-1.2,0.3
				l-1,0.1c-0.9,0.1-1.8,0.3-2.6,0.8c-0.5,0.3-1,0.8-1.3,1.3c-0.3,0.6-0.4,1.2-0.4,1.8c0,0.5,0,1,0.2,1.4c0.2,0.4,0.4,0.8,0.8,1.2
				c0.7,0.6,1.6,0.9,2.6,0.9c6.5,0.3,6.5-3.5,6.5-4.3V8.8C121.5,7.4,121,6.4,120,5.9z M105.1,7.8c0.3,0,0.6,0,0.9,0.1
				c0.3,0.1,0.5,0.3,0.7,0.6c0.2,0.4,0.4,0.8,0.5,1.2h3.2c-0.2-1.7-0.7-2.8-1.7-3.5c-1.1-0.7-2.4-1-3.7-1c-0.8,0-1.5,0.1-2.3,0.4
				c-0.7,0.3-1.4,0.7-1.9,1.3c-1.1,1.3-1.6,3-1.5,4.7c-0.1,1.6,0.4,3.1,1.4,4.3c0.9,1.1,2.3,1.7,4.3,1.7c0.8,0.1,1.7-0.1,2.4-0.4
				c0.8-0.3,1.4-0.9,1.9-1.6c0.6-0.8,1-1.7,1-2.6h-3.2c0,0.5-0.2,1.1-0.6,1.5c-0.2,0.2-0.4,0.4-0.7,0.5c-0.3,0.1-0.6,0.1-0.9,0.1
				c-0.5,0-0.9-0.1-1.3-0.4c-0.4-0.3-0.7-0.7-0.8-1.1c-0.2-0.7-0.3-1.4-0.3-2.1c0-0.7,0.1-1.5,0.3-2.2c0.1-0.5,0.4-0.9,0.8-1.1
				C104.2,7.9,104.7,7.8,105.1,7.8z M98.5,5.2c-6.6,0-6.2,6-6.2,6v6.1h3v-5.7c0-0.7,0.1-1.4,0.3-2.1C96,8.7,96.8,8.3,98,8.3
				c0.3,0,0.6,0,0.9,0.1V5.2H98.5z M83.4,8.4c0.2-0.2,0.5-0.4,0.8-0.5c0.3-0.1,0.6-0.2,1-0.2c0.6,0,1.3,0.2,1.8,0.6
				c0.2,0.2,0.4,0.5,0.6,0.8c0.1,0.3,0.2,0.7,0.2,1h-5.1C82.7,9.5,83,8.9,83.4,8.4z M87.4,14.1c-0.1,0.2-0.3,0.3-0.4,0.5
				c-0.5,0.4-1.1,0.5-1.7,0.5c-0.6,0-1.1-0.1-1.6-0.4c-0.4-0.3-0.7-0.6-0.9-1.1c-0.2-0.4-0.3-0.9-0.3-1.4h8.3c0-0.8,0-1.6-0.1-2.3
				c-0.1-0.9-0.4-1.7-0.9-2.4c-0.5-0.8-1.2-1.4-2-1.7C87,5.4,86,5.2,85.1,5.3c-0.8,0-1.5,0.1-2.2,0.4C82.2,6,81.6,6.4,81,6.9
				c-1,1.1-1.6,2.6-1.6,4.7c0,2.2,0.6,3.7,1.7,4.7c1.1,1,2.6,1.5,4.1,1.4c0.8,0,1.6-0.1,2.3-0.4c0.7-0.3,1.4-0.8,2-1.3
				c0.5-0.5,0.8-1.1,1-1.8L87.4,14.1z M78.3,17.3h-2.8v-7.1c0-0.3,0-0.6-0.1-0.8c-0.1-0.3-0.2-0.5-0.4-0.7c-0.2-0.2-0.4-0.4-0.7-0.5
				C74.1,8,73.8,8,73.6,8c-0.3,0-0.6,0.1-0.8,0.2c-0.3,0.1-0.5,0.3-0.7,0.5c-0.2,0.2-0.3,0.4-0.4,0.7c-0.1,0.3-0.1,0.5-0.1,0.8v7.1
				h-2.8v-7.1c0-0.3,0-0.6-0.1-0.8c-0.1-0.3-0.2-0.5-0.4-0.7c-0.2-0.2-0.4-0.4-0.7-0.5C67.4,8,67.1,8,66.8,8S66.2,8,66,8.2
				c-0.3,0.1-0.5,0.3-0.7,0.5c-0.2,0.2-0.3,0.5-0.4,0.7c-0.1,0.3-0.1,0.6-0.1,0.8v7.1H62v-7c0-2.9,1.9-5.1,4.8-5.1
				c0.7,0,1.3,0.1,1.9,0.4c0.6,0.3,1.1,0.7,1.5,1.2c0.4-0.5,0.9-0.9,1.5-1.2c0.6-0.3,1.2-0.4,1.9-0.4c3,0,4.8,2.1,4.8,5.1V17.3z
				 M129.9,14.1c-0.2,0.3-0.5,0.6-0.8,0.7c-0.3,0.2-0.7,0.2-1.1,0.2c-0.4,0-0.7-0.1-1.1-0.2c-0.3-0.2-0.6-0.4-0.8-0.7
				c-0.4-0.8-0.7-1.7-0.6-2.7c0-0.9,0.2-1.8,0.6-2.5c0.2-0.3,0.5-0.6,0.8-0.8c0.3-0.2,0.7-0.3,1.1-0.2c0.6,0,1.1,0.2,1.5,0.6
				c0.7,0.6,1.1,1.7,1.1,3.2C130.6,12.5,130.4,13.3,129.9,14.1z M133.6,1.5c0,0-3-0.3-3,2.2V7c-0.3-0.6-0.8-1-1.3-1.3
				c-0.6-0.3-1.2-0.5-1.8-0.4c-0.7,0-1.4,0.1-2,0.4c-0.6,0.3-1.2,0.7-1.6,1.3c-1,1.4-1.5,3.1-1.4,4.8c-0.1,1.5,0.4,3.1,1.4,4.3
				c0.9,1.1,2.7,1.6,4.3,1.6c5.5,0,5.5-4.9,5.5-4.9L133.6,1.5z M95.4,26.1c0.2-0.2,0.5-0.4,0.8-0.5c0.3-0.1,0.6-0.2,1-0.1
				c0.6,0,1.3,0.2,1.8,0.6c0.2,0.2,0.4,0.5,0.6,0.8c0.1,0.3,0.2,0.7,0.2,1h-5.1C94.7,27.2,95,26.6,95.4,26.1z M99.4,32.1
				c-0.1,0.2-0.2,0.3-0.4,0.5c-0.5,0.4-1.1,0.5-1.7,0.5c-0.6,0-1.1-0.1-1.6-0.4c-0.4-0.3-0.7-0.6-0.9-1.1c-0.2-0.4-0.3-0.9-0.3-1.4
				h8.3c0-0.8,0-1.5-0.1-2.3c-0.1-0.9-0.4-1.7-0.9-2.4c-0.5-0.7-1.2-1.3-2-1.7c-0.8-0.4-1.7-0.6-2.7-0.5c-0.7,0-1.5,0.1-2.2,0.4
				c-0.7,0.3-1.3,0.7-1.9,1.2c-1,1.1-1.6,2.6-1.6,4.6c0,2.1,0.6,3.7,1.7,4.6s2.5,1.4,4,1.4c0.8,0,1.6-0.1,2.3-0.4
				c0.7-0.3,1.4-0.7,1.9-1.3c0.5-0.5,0.8-1.1,1-1.8L99.4,32.1z M79.9,32c-0.2,0.3-0.5,0.6-0.8,0.8C78.8,33,78.4,33,78,33
				c-0.4,0-0.8-0.1-1.1-0.2c-0.3-0.2-0.6-0.4-0.8-0.7c-0.5-0.7-0.7-1.6-0.7-2.5c0-1.4,0.4-2.5,1.1-3.1c0.4-0.4,1-0.6,1.5-0.6
				c0.4,0,0.8,0.1,1.1,0.2c0.3,0.2,0.6,0.5,0.8,0.8c0.4,0.8,0.6,1.7,0.6,2.6S80.3,31.3,79.9,32z M78.5,23c-0.6,0-1.3,0.1-1.8,0.4
				c-0.6,0.3-1,0.8-1.3,1.3v-5.5c0,0-3-0.3-3,2.2v9c0,0-0.1,4.9,5.5,4.9c1.6,0,3.4-0.5,4.3-1.6c0.9-1.2,1.4-2.7,1.4-4.3
				c0.1-1.7-0.4-3.4-1.4-4.7c-0.4-0.6-1-1-1.6-1.3C79.9,23.1,79.2,23,78.5,23z M90.9,23.2L90.9,23.2c-6.7,0-6.3,6-6.3,6v6h3v-5.6
				c0-0.7,0.1-1.4,0.3-2.1c0.4-0.8,1.2-1.2,2.4-1.2c0.3,0,0.6,0,0.9,0.1v-3.1L90.9,23.2z M62.4,21.4V35h2.8V19.2
				C65.2,19.2,62.4,19.1,62.4,21.4z M70.3,22.3h-3v-3.1h3V22.3z M67.2,35.4h3V23.7h-3V35.4z"/>
		</g>
	</g>
</g>
</svg>
