<?xml version="1.0" encoding="utf-8"?>
<!-- Generator: Adobe Illustrator 28.0.0, SVG Export Plug-In . SVG Version: 6.00 Build 0)  -->
<svg version="1.1" id="Capa_1" xmlns="http://www.w3.org/2000/svg" xmlns:xlink="http://www.w3.org/1999/xlink" x="0px" y="0px"
	 viewBox="0 0 132 36" style="enable-background:new 0 0 132 36;" xml:space="preserve">
<style type="text/css">
	.st0{clip-path:url(#SVGID_00000138537525623324376890000014448677117271487391_);}
	.st1{fill:#FFFFFF;filter:url(#Adobe_OpacityMaskFilter);}
	.st2{mask:url(#mask0_2767_31164_00000143584126157072992100000006050126146738660994_);}
	.st3{fill:#003087;}
	.st4{fill:#0070E0;}
	.st5{fill:#001C64;}
</style>
<g>
	<defs>
		<rect id="SVGID_1_" x="0.5" y="0.9" width="130.5" height="34.2"/>
	</defs>
	<clipPath id="SVGID_00000026137029844371847920000004044143454232857528_">
		<use xlink:href="#SVGID_1_"  style="overflow:visible;"/>
	</clipPath>
	<g style="clip-path:url(#SVGID_00000026137029844371847920000004044143454232857528_);">
		<defs>
			<filter id="Adobe_OpacityMaskFilter" filterUnits="userSpaceOnUse" x="1.2" y="0.9" width="129" height="34.2">
				<feColorMatrix  type="matrix" values="1 0 0 0 0  0 1 0 0 0  0 0 1 0 0  0 0 0 1 0"/>
			</filter>
		</defs>
		
			<mask maskUnits="userSpaceOnUse" x="1.2" y="0.9" width="129" height="34.2" id="mask0_2767_31164_00000143584126157072992100000006050126146738660994_">
			<path class="st1" d="M130.1,0.9H1.2v34.2h129V0.9z"/>
		</mask>
		<g class="st2">
			<path class="st3" d="M42.4,7.7c-0.3,0-0.5,0.2-0.5,0.4l-3.1,19.5c0,0.1,0,0.2,0,0.2c0,0.1,0.1,0.1,0.1,0.2
				c0.1,0.1,0.1,0.1,0.2,0.1s0.2,0.1,0.2,0.1h3.6c0.3,0,0.5-0.2,0.5-0.5l0.9-5.8c0-0.3,0.3-0.4,0.5-0.4h3.4c3.9,0,7.2-2.8,7.7-6.7
				c0.6-3.9-2.4-7.2-6.7-7.2H42.4z M46,12.1h2.6c2.2,0,2.9,1.3,2.7,2.7s-1.3,2.5-3.4,2.5h-2.7L46,12.1z M63.5,13.4
				c-0.9,0-2,0.2-3.2,0.7c-2.7,1.2-4,3.5-4.6,5.2c0,0-1.8,5.2,2.2,8.1c0,0,3.7,2.8,7.9-0.2l-0.1,0.4c0,0.1,0,0.2,0,0.2
				c0,0.1,0.1,0.1,0.1,0.2c0.1,0.1,0.1,0.1,0.2,0.1c0.1,0,0.2,0.1,0.2,0.1h3.4c0.3,0,0.4-0.2,0.5-0.5l2.1-13.3c0-0.1,0-0.2,0-0.2
				c0-0.1-0.1-0.1-0.1-0.2C72.1,14,72.1,14,72,14c-0.1,0-0.2-0.1-0.2-0.1h-3.4c-0.3,0-0.4,0.2-0.5,0.4l-0.1,0.7
				C67.7,15,66.2,13.4,63.5,13.4z M63.5,17.6c0.4,0,0.7,0.1,1.1,0.2c1.5,0.5,2.3,1.9,2.1,3.5c-0.3,1.9-1.9,3.3-3.9,3.3
				c-0.4,0-0.7-0.1-1.1-0.2c-1.5-0.4-2.3-1.9-2.1-3.5C59.9,19.1,61.6,17.6,63.5,17.6z"/>
			<path class="st4" d="M92.3,7.7c-0.3,0-0.4,0.2-0.5,0.4l-3.1,19.5c0,0.1,0,0.2,0,0.2c0,0.1,0.1,0.1,0.1,0.2
				c0.1,0.1,0.1,0.1,0.2,0.1c0.1,0,0.2,0.1,0.2,0.1h3.6c0.3,0,0.4-0.2,0.5-0.5l0.9-5.8c0-0.3,0.3-0.4,0.5-0.4H98
				c3.9,0,7.2-2.8,7.7-6.7c0.6-3.9-2.4-7.2-6.7-7.2H92.3z M95.8,12.1h2.6c2.2,0,2.9,1.3,2.7,2.7s-1.4,2.5-3.4,2.5H95L95.8,12.1z
				 M113.2,13.4c-0.9,0-2,0.2-3.2,0.7c-2.7,1.2-4.1,3.5-4.6,5.2c0,0-1.8,5.2,2.2,8.1c0,0,3.7,2.8,7.9-0.2l-0.1,0.4
				c0,0.1,0,0.2,0,0.2c0,0.1,0.1,0.1,0.1,0.2c0.1,0.1,0.1,0.1,0.2,0.1c0.1,0,0.2,0.1,0.2,0.1h3.4c0.3,0,0.4-0.2,0.5-0.5l2.1-13.3
				c0-0.1,0-0.2,0-0.2c0-0.1-0.1-0.1-0.1-0.2c-0.1-0.1-0.1-0.1-0.2-0.1c-0.1,0-0.2-0.1-0.2-0.1h-3.4c-0.3,0-0.4,0.2-0.5,0.4
				l-0.1,0.7C117.6,15,116,13.4,113.2,13.4z M113.3,17.6c0.4,0,0.7,0.1,1.1,0.2c1.5,0.5,2.3,1.9,2.1,3.5c-0.3,1.9-1.9,3.3-3.9,3.3
				c-0.4,0-0.7-0.1-1.1-0.2c-1.5-0.4-2.3-1.9-2.1-3.5C109.8,19.1,111.3,17.6,113.3,17.6z"/>
			<path class="st3" d="M73.9,13.9c-0.3,0-0.4,0.3-0.4,0.5l3.8,11.8l-3.4,5.6c-0.2,0.3,0,0.6,0.4,0.6h4.1c0.1,0,0.3,0,0.4-0.1
				c0.1-0.1,0.2-0.2,0.3-0.3l10.6-17.6c0.2-0.3,0-0.6-0.4-0.6h-4.1c-0.1,0-0.3,0-0.4,0.1c-0.1,0.1-0.2,0.2-0.3,0.3l-4.1,7l-2.2-7
				c-0.1-0.3-0.3-0.4-0.5-0.4H73.9z"/>
			<path class="st4" d="M126,7.7c-0.3,0-0.5,0.2-0.5,0.4l-3.1,19.5c0,0.1,0,0.2,0,0.2c0,0.1,0.1,0.1,0.1,0.2
				c0.1,0.1,0.1,0.1,0.2,0.1c0.1,0,0.2,0.1,0.2,0.1h3.6c0.3,0,0.5-0.2,0.5-0.5l3.1-19.5c0-0.1,0-0.2,0-0.2c0-0.1-0.1-0.1-0.1-0.2
				c-0.1-0.1-0.1-0.1-0.2-0.1c-0.1,0-0.2-0.1-0.2-0.1H126z"/>
			<path class="st5" d="M12.1,7.7c-0.3,0-0.4,0.1-0.6,0.3c-0.2,0.2-0.3,0.4-0.4,0.6L9.5,18.8c0.1-0.4,0.5-0.8,1-0.8h4.8
				c4.8,0,8.8-3.5,9.5-8.2c0-0.4,0.1-0.7,0.1-1.1c-1.2-0.6-2.6-1-4.2-1H12.1z"/>
			<path class="st4" d="M24.8,8.7c0,0.4,0,0.7-0.1,1.1C24,14.5,20,18,15.2,18h-4.8c-0.4,0-0.9,0.4-1,0.8L8,28.3l-0.9,5.9
				c0,0.1,0,0.3,0,0.4s0.1,0.2,0.2,0.3C7.4,34.9,7.5,35,7.6,35c0,0.1,0.2,0.1,0.3,0.1H13c0.3,0,0.4-0.1,0.6-0.3
				c0.2-0.2,0.3-0.4,0.4-0.6l1.4-8.6c0-0.3,0.2-0.4,0.4-0.6c0.2-0.2,0.5-0.3,0.6-0.3h3.1c4.8,0,8.8-3.5,9.5-8.2
				C29.4,13.3,27.7,10.3,24.8,8.7z"/>
			<path class="st3" d="M6.2,0.9c-0.4,0-0.9,0.4-1,0.8L1.2,27.4c-0.1,0.5,0.3,0.9,0.8,0.9h6l1.5-9.4l1.6-10.3c0-0.3,0.2-0.4,0.4-0.6
				c0.2-0.2,0.4-0.3,0.6-0.3h8.6c1.5,0,3,0.4,4.2,1c0-4.2-3.6-7.7-8.5-7.7H6.2z"/>
		</g>
	</g>
</g>
</svg>
