<?xml version="1.0" encoding="utf-8"?>
<!-- Generator: Adobe Illustrator 28.0.0, SVG Export Plug-In . SVG Version: 6.00 Build 0)  -->
<svg version="1.1" id="Capa_1" xmlns="http://www.w3.org/2000/svg" xmlns:xlink="http://www.w3.org/1999/xlink" x="0px" y="0px"
	 viewBox="0 0 174 36" style="enable-background:new 0 0 174 36;" xml:space="preserve">
<style type="text/css">
	.st0{clip-path:url(#SVGID_00000135662411568693106520000007822078631148794243_);}
	.st1{fill:#FFFFFF;filter:url(#Adobe_OpacityMaskFilter);}
	.st2{mask:url(#mask0_2767_31157_00000147930223335710386170000016262632329744800164_);}
	.st3{fill:#EA1D25;}
</style>
<g>
	<defs>
		<rect id="SVGID_1_" x="0.8" width="172.8" height="36"/>
	</defs>
	<clipPath id="SVGID_00000044892102544973435990000009532804264834546828_">
		<use xlink:href="#SVGID_1_"  style="overflow:visible;"/>
	</clipPath>
	<g style="clip-path:url(#SVGID_00000044892102544973435990000009532804264834546828_);">
		<defs>
			<filter id="Adobe_OpacityMaskFilter" filterUnits="userSpaceOnUse" x="1.5" y="-0.4" width="171.7" height="30">
				<feColorMatrix  type="matrix" values="1 0 0 0 0  0 1 0 0 0  0 0 1 0 0  0 0 0 1 0"/>
			</filter>
		</defs>
		
			<mask maskUnits="userSpaceOnUse" x="1.5" y="-0.4" width="171.7" height="30" id="mask0_2767_31157_00000147930223335710386170000016262632329744800164_">
			<path class="st1" d="M173.3,0H1.4v36h171.9V0z"/>
		</mask>
		<g class="st2">
			<path class="st3" d="M24.1,13.4c-0.1-1.1-0.4-2.2-0.9-3.1l-4.9-8.6c-0.4-0.6-0.6-1.4-0.8-2.1l-0.2,0.4c-1.3,2.1-1.3,4.8,0,6.8
				l4,6.8c1.3,2.1,1.3,4.8,0,6.8l-0.2,0.4c-0.2-0.7-0.5-1.4-0.8-2.1l-3.6-6.3l-2.4-4c-0.4-0.6-0.6-1.3-0.8-2.1l-0.2,0.4
				c-1.3,2.1-1.3,4.7,0,6.8l4,6.8c1.3,2.1,1.3,4.8,0,6.8L17,27.6c-0.2-0.7-0.5-1.4-0.8-2.1l-4.9-8.6c-0.6-1.2-0.9-2.4-0.9-3.8
				c-5.3,1.3-8.9,4.3-8.9,7.7c0,4.8,7.1,8.6,15.8,8.6s15.8-3.9,15.8-8.6C33.1,17.7,29.4,14.8,24.1,13.4z M39,28.1
				c0.1-1.3,0.2-2,0.5-3.1c1.6,0.8,3.8,1.2,5.4,1.2c2.7,0,4.3-0.9,4.3-2.7c0-1.7-1.2-2.5-3.9-3.8L44,19.2c-2.8-1.3-4.7-2.8-4.7-5.9
				c0-3.4,2.3-5.6,7.1-5.6c2,0,3.8,0.3,5.4,0.9c-0.1,1.2-0.3,2.1-0.5,3c-1.6-0.5-3.5-0.9-4.9-0.9c-2.6,0-3.8,1-3.8,2.6
				c0,1.5,1.2,2.4,3.2,3.3l1.6,0.6c3.8,1.6,5.3,3.3,5.3,6.2c0,3.4-2.6,5.8-7.6,5.8C42.7,29.2,40.6,28.9,39,28.1z M68.6,13.8v14.9
				h-3.1l-0.2-1.8c-0.9,1.3-2.1,2.2-4.1,2.2c-3.9,0-6.6-2.9-6.6-7.9c0-5.2,2.8-8.3,8.3-8.3C65.2,13.1,67,13.2,68.6,13.8z M65.4,25.3
				V16c-0.6-0.2-1.4-0.2-2.3-0.2c-3.4,0-5,2.1-5,5.4c0,3.1,1.3,5.2,4.1,5.2C63.5,26.4,64.6,25.9,65.4,25.3z M85.4,18.7v10h-3.2v-9.4
				c0-2.4-0.8-3.5-4.1-3.5c-0.8,0-1.6,0.1-2.6,0.2v12.7h-3.2V13.8c2.1-0.5,4.4-0.9,5.9-0.9C83.6,13.1,85.4,15.1,85.4,18.7z
				 M94.4,26.3c0.9,0,1.9-0.2,2.5-0.5c-0.1,0.9-0.2,1.9-0.4,2.8c-0.9,0.4-1.9,0.5-2.7,0.5c-3.2,0-5.2-1.4-5.2-5V8.4
				c1-0.4,2.2-0.5,3.2-0.5v5.7h5.2c-0.1,1-0.2,2-0.3,2.8H92v7.3C91.9,25.6,92.9,26.3,94.4,26.3z M112,13.8v14.9h-3.1l-0.2-1.8
				c-0.9,1.3-2.1,2.2-4.1,2.2c-3.9,0-6.6-2.9-6.6-7.9c0-5.2,2.8-8.3,8.3-8.3C108.6,13.1,110.3,13.2,112,13.8z M108.7,25.3V16
				c-0.6-0.2-1.4-0.2-2.3-0.2c-3.4,0-4.9,2.1-4.9,5.4c0,3.1,1.3,5.2,4.1,5.2C106.8,26.4,107.9,25.9,108.7,25.3z M128.7,18.7v10h-3.3
				v-9.4c0-2.4-0.8-3.5-4.1-3.5c-0.8,0-1.6,0.1-2.6,0.2v12.7h-3.2V13.8c2.1-0.5,4.4-0.9,5.9-0.9C126.9,13.1,128.7,15.1,128.7,18.7z
				 M145.3,7.9v20.8h-3.1l-0.2-1.9c-0.9,1.4-2.1,2.2-4.2,2.2c-3.9,0-6.6-2.9-6.6-7.9c0-5.2,2.8-8.3,8.3-8.3c0.9,0,1.6,0.1,2.4,0.2
				V8.3C143,7.9,144.1,7.9,145.3,7.9z M142,25.3v-9.2c-0.9-0.2-1.7-0.3-2.6-0.3c-3.2,0-4.8,2-4.8,5.4c0,3.1,1.3,5.2,4.1,5.2
				C140.1,26.4,141.2,25.9,142,25.3z M161.7,22.3h-10.4c0.4,2.7,2,3.9,4.9,3.9c1.8,0,3.6-0.4,5.2-1.2c-0.2,0.9-0.3,2-0.5,3
				c-1.5,0.6-3.1,0.9-4.9,0.9c-5.5,0-8.1-3.1-8.1-8.1c0-4.4,2-7.9,7.2-7.9c4.7,0,6.8,3.1,6.8,6.8C161.9,20.8,161.9,21.5,161.7,22.3z
				 M151.2,19.6h7.4c0-2.4-1.3-3.9-3.5-3.9C152.7,15.8,151.4,17.1,151.2,19.6z M173.2,13.1c0,1-0.2,2.2-0.3,2.8
				c-0.8-0.1-1.5-0.2-2.4-0.2c-0.8,0-1.6,0.1-2.3,0.2v12.7h-3.2V13.8c1.4-0.5,3.8-0.9,5.6-0.9C171.3,13.1,172.5,13.1,173.2,13.1z"/>
		</g>
	</g>
</g>
</svg>
